<svg width="24" height="24" viewBox="0 0 24 24" fill="none" xmlns="http://www.w3.org/2000/svg">
<path d="M13.3092 20.4002C11.9869 20.6067 10.6345 20.4981 9.3621 20.0832C8.08971 19.6683 6.93328 18.9588 5.98693 18.0124C5.04059 17.0661 4.33108 15.9096 3.91616 14.6372C3.50124 13.3648 3.39263 12.0125 3.59918 10.6902C3.07791 9.69867 2.88744 8.56644 3.05559 7.45897C3.22374 6.3515 3.74171 5.32684 4.53379 4.53477C5.32587 3.74269 6.35052 3.22472 7.45799 3.05657C8.56547 2.88841 9.69769 3.07889 10.6892 3.60016C12.0115 3.39361 13.3639 3.50221 14.6363 3.91713C15.9086 4.33205 17.0651 5.04156 18.0114 5.98791C18.9578 6.93425 19.6673 8.09069 20.0822 9.36308C20.4971 10.6355 20.6057 11.9879 20.3992 13.3102C20.9204 14.3016 21.1109 15.4339 20.9428 16.5413C20.7746 17.6488 20.2566 18.6735 19.4646 19.4655C18.6725 20.2576 17.6478 20.7756 16.5404 20.9437C15.4329 21.1119 14.3007 20.9214 13.3092 20.4002ZM12.0512 17.1562H12.0112C14.8832 17.1562 16.3142 15.7702 16.3142 13.9132C16.3142 12.7152 15.7632 11.4422 13.5882 10.9552L11.6052 10.5152C10.8502 10.3432 9.98318 10.1152 9.98318 9.40016C9.98318 8.68516 10.6032 8.18716 11.7072 8.18716C13.9372 8.18716 13.7342 9.71516 14.8382 9.71516C15.4142 9.71516 15.9312 9.37316 15.9312 8.78516C15.9312 7.41516 13.7342 6.38516 11.8752 6.38516C9.85418 6.38516 7.70218 7.24416 7.70218 9.52916C7.70218 10.6272 8.09618 11.7992 10.2622 12.3422L12.9512 13.0132C13.7672 13.2152 13.9692 13.6722 13.9692 14.0852C13.9692 14.7722 13.2852 15.4432 12.0512 15.4432C9.63418 15.4432 9.97318 13.5862 8.67718 13.5862C8.09718 13.5862 7.67418 13.9842 7.67418 14.5572C7.67418 15.6712 9.02618 17.1552 12.0512 17.1552V17.1562Z" fill="#FF5300"/>
</svg>
